<svg xmlns="http://www.w3.org/2000/svg" viewBox="0 0 26 30"><defs><style>.cls-1,.cls-2{fill:#fff;}.cls-1{fill-rule:evenodd;}</style></defs><title>アセット 4</title><g id="レイヤー_2" data-name="レイヤー 2"><g id="Layer_1" data-name="Layer 1"><path class="cls-1" d="M2,20H2a2,2,0,0,1-2-2V11A2,2,0,0,1,2,9H2a2,2,0,0,1,2,2v7A2,2,0,0,1,2,20Z"/><path class="cls-1" d="M24,20h0a2,2,0,0,1-2-2V11a2,2,0,0,1,2-2h0a2,2,0,0,1,2,2v7A2,2,0,0,1,24,20Z"/><path class="cls-1" d="M16,30h0a2,2,0,0,1-2-2V21a2,2,0,0,1,2-2h0a2,2,0,0,1,2,2v7A2,2,0,0,1,16,30Z"/><path class="cls-1" d="M10,30h0a2,2,0,0,1-2-2V21a2,2,0,0,1,2-2h0a2,2,0,0,1,2,2v7A2,2,0,0,1,10,30Z"/><path class="cls-2" d="M5,10H21a0,0,0,0,1,0,0V23a1,1,0,0,1-1,1H6a1,1,0,0,1-1-1V10A0,0,0,0,1,5,10Z"/><path class="cls-1" d="M13,2A8.57,8.57,0,0,0,5,8H21A8.57,8.57,0,0,0,13,2ZM10,6a1,1,0,1,1,1-1A1,1,0,0,1,10,6Zm6,0a1,1,0,1,1,1-1A1,1,0,0,1,16,6Z"/><path class="cls-1" d="M10.61,2.92,7.84.15a.5.5,0,0,0-.71,0,.48.48,0,0,0,0,.7L9.76,3.48Z"/><path class="cls-1" d="M16.05,3l.34.36L18.88.85a.48.48,0,0,0,0-.7.48.48,0,0,0-.7,0L15.34,3Z"/></g></g></svg>