<svg xmlns="http://www.w3.org/2000/svg" viewBox="0 0 30 24"><defs><style>.cls-1{fill:#fff;}</style></defs><title>アセット 3</title><g id="レイヤー_2" data-name="レイヤー 2"><g id="Layer_1" data-name="Layer 1"><path class="cls-1" d="M30,3a12.1,12.1,0,0,1-3.53.79A6.47,6.47,0,0,0,29,1c-1.19.69-2.34.64-3.74.91A6.21,6.21,0,0,0,20.77,0a6.11,6.11,0,0,0-6.16,6.06,5.73,5.73,0,0,0,.17,1.38A17.85,17.85,0,0,1,2,1a6.28,6.28,0,0,0-.75,3.16A6,6,0,0,0,4,9.2a6.24,6.24,0,0,1-2.79-.76v.08a6.09,6.09,0,0,0,4.93,5.94,6.15,6.15,0,0,1-1.62.21,6.34,6.34,0,0,1-1.16-.11A6.24,6.24,0,0,0,9,19c-2.63,3-8.52,2.05-9,2a17.87,17.87,0,0,0,9.44,3A17.25,17.25,0,0,0,27,6.76c0-.26,0-.52,0-.78A11.76,11.76,0,0,0,30,3Z"/></g></g></svg>