<svg xmlns="http://www.w3.org/2000/svg" viewBox="0 0 23.81 30"><defs><style>.cls-1{fill:#fff;}</style></defs><title>アセット 1</title><g id="レイヤー_2" data-name="レイヤー 2"><g id="Layer_1" data-name="Layer 1"><path class="cls-1" d="M12.63,0C4.17,0,0,5.87,0,10.76c0,3,1.06,5.6,3.55,6.59a.62.62,0,0,0,.89-.43c.08-.31.28-1.07.36-1.39a.81.81,0,0,0-.25-1,4.86,4.86,0,0,1-1.18-3.38c0-4.35,3.37-8.25,8.77-8.25,4.78,0,7.41,2.83,7.41,6.6,0,5-2.27,9.46-5.65,9.46a2.92,2.92,0,0,1-2.81-3.61c.54-2.19,1.81-4.54,1.81-6.12C12.9,7.86,12,7,10.26,7,8.07,7,6.9,8.59,6.9,11.15a7.16,7.16,0,0,0,.5,2.72s-2.12,8-2.29,9.39a34.74,34.74,0,0,0-.06,6.55.24.24,0,0,0,.43.1,18.32,18.32,0,0,0,3.21-5.64c.22-.77,1.25-4.74,1.25-4.74A5.38,5.38,0,0,0,14.29,22c5.73,0,9.52-5.37,9.52-12.13C23.81,4.76,19.43,0,12.63,0Z"/></g></g></svg>