<svg xmlns="http://www.w3.org/2000/svg" viewBox="0 0 32.61 21.04"><defs><style>.cls-1{fill:#fff;}</style></defs><title>アセット 5</title><g id="レイヤー_2" data-name="レイヤー 2"><g id="Layer_1" data-name="Layer 1"><path class="cls-1" d="M20.86,9.35H16.13a5.66,5.66,0,0,1,.12,1.17A5.84,5.84,0,1,1,13.9,5.84l3.33-3.31A10.42,10.42,0,0,0,0,10.52a10.47,10.47,0,1,0,20.93,0A11.31,11.31,0,0,0,20.86,9.35Z"/><rect class="cls-1" x="23.26" y="9.35" width="9.35" height="2.34"/><rect class="cls-1" x="23.26" y="9.35" width="9.35" height="2.34" transform="translate(17.42 38.46) rotate(-90)"/><path class="cls-1" d="M19.76,11.69l1.17-1.17V8.18H10.41v4.68h8.81C19.5,12.27,19.76,11.69,19.76,11.69Z"/></g></g></svg>