<svg xmlns="http://www.w3.org/2000/svg" viewBox="0 0 25.96 30"><defs><style>.cls-1{fill:#fff;}</style></defs><title>アセット 6</title><g id="レイヤー_2" data-name="レイヤー 2"><g id="Layer_1" data-name="Layer 1"><path class="cls-1" d="M5,6A1,1,0,0,0,6,5V2.43C6,1.88,6,1,6,1A31.75,31.75,0,0,1,.06,6H2.55"/><path class="cls-1" d="M25.25,5.22a2.51,2.51,0,0,0-1.64-2,22.44,22.44,0,0,0-4-.72,32.08,32.08,0,0,0-4.26-.12A2.43,2.43,0,0,0,13.94.51,11.3,11.3,0,0,0,8.65.17,2.69,2.69,0,0,0,7.11,1,2.73,2.73,0,0,0,7,2.43c0,.33,0,1.1,0,1.79S7,5,7,5A2.14,2.14,0,0,1,5,7H1C.06,7-.15,8.62.1,11A33,33,0,0,0,2,18.67,2.81,2.81,0,0,0,3,20c3.4,2.5,7.31,2.39,9,1,0,0,1-.85,1-4.59,0-.1.23-.1.23,0,0,.65-.13,2.94,1.67,3.56a22.71,22.71,0,0,0,3.67.62c1.35.15,2.43.06,2.43,3.41,0,2.17-.06,3-3,3-1.72,0-2.45,0-2.45-1.47,0-1.17,1.19-1.05,2.08-1.05.39,0,.1-.28.1-1s.47-1.12,0-1.14c-3-.08-4.76.24-4.76,3.69,0,3.16,1.23,4,5.57,4,3.4,0,4.6-.11,6-4.31A20.46,20.46,0,0,0,26,18,124,124,0,0,0,25.25,5.22ZM18,15a2,2,0,0,1,4,0A4.51,4.51,0,0,0,18,15Z"/></g></g></svg>